<svg xmlns="http://www.w3.org/2000/svg" width="20.402" height="20.402" viewBox="0 0 20.402 20.402">
  <path id="COMPTE" d="M-14.408-21.484a9.889,9.889,0,0,1,5.1,1.378,10.308,10.308,0,0,1,3.723,3.723,9.889,9.889,0,0,1,1.378,5.1,9.889,9.889,0,0,1-1.378,5.1A10.308,10.308,0,0,1-9.308-2.46a9.889,9.889,0,0,1-5.1,1.378,9.889,9.889,0,0,1-5.1-1.378,10.308,10.308,0,0,1-3.723-3.723,9.889,9.889,0,0,1-1.378-5.1,9.889,9.889,0,0,1,1.378-5.1,10.308,10.308,0,0,1,3.723-3.723A9.889,9.889,0,0,1-14.408-21.484Zm0,1.974A7.983,7.983,0,0,0-18.522-18.4a8.3,8.3,0,0,0-3,3,8.021,8.021,0,0,0-1.111,4.134,7.8,7.8,0,0,0,1.152,4.134,3.891,3.891,0,0,1,.823-1.563A3.831,3.831,0,0,1-18.892-9.8a5.179,5.179,0,0,1-.782-2.756,5.3,5.3,0,0,1,.7-2.694,5.122,5.122,0,0,1,1.913-1.913,5.221,5.221,0,0,1,2.653-.7,5.221,5.221,0,0,1,2.653.7,5.122,5.122,0,0,1,1.913,1.913,5.221,5.221,0,0,1,.7,2.653,5.251,5.251,0,0,1-.782,2.8A3.831,3.831,0,0,1-8.156-8.692a3.89,3.89,0,0,1,.823,1.563,7.8,7.8,0,0,0,1.152-4.134A8.021,8.021,0,0,0-7.292-15.4a8.3,8.3,0,0,0-3-3A7.983,7.983,0,0,0-14.408-19.51Zm3.291,6.91a3.169,3.169,0,0,0-.967-2.324,3.169,3.169,0,0,0-2.324-.967,3.169,3.169,0,0,0-2.324.967A3.169,3.169,0,0,0-17.7-12.6a3.169,3.169,0,0,0,.967,2.324,3.169,3.169,0,0,0,2.324.967,3.169,3.169,0,0,0,2.324-.967A3.169,3.169,0,0,0-11.118-12.6Zm-8.556,7.651a8.523,8.523,0,0,0,2.447,1.4,8.069,8.069,0,0,0,2.818.494,8.069,8.069,0,0,0,2.818-.494,8.523,8.523,0,0,0,2.447-1.4V-6.1a1.893,1.893,0,0,0-.37-1.131A1.73,1.73,0,0,0-10.5-7.91L-11.529-8.2a5.016,5.016,0,0,1-2.879.864A5.016,5.016,0,0,1-17.288-8.2l-1.028.288a1.73,1.73,0,0,0-.987.679,1.893,1.893,0,0,0-.37,1.131Z" transform="translate(24.609 21.484)" fill="#5badff"/>
</svg>
