<svg id="logo" xmlns="http://www.w3.org/2000/svg" width="22.538" height="22.499" viewBox="0 0 22.538 22.499">
  <g id="Groupe_913" data-name="Groupe 913">
    <g id="Groupe_912" data-name="Groupe 912">
      <path id="Tracé_8" data-name="Tracé 8" d="M36.651,8.493l-.349.078-1.784.155-.5.776-.349-.155-1.435-1.28L32,7.407l-.272-.7-.931-.776L29.708,5.7v.5l1.009,1.009.5.582-.582.272-.427-.155-.737-.272V7.058l-.931-.349-.272,1.28-.931.233.078.7,1.2.233.272-1.009L29.9,8.3l.427.272h.737l.5,1.009,1.358,1.358-.078.5-1.086-.155-1.862.931-1.358,1.59-.155.737h-.5l-.931-.427-.853.427.233.931.349-.427h.659l-.078.853.582.155.543.621.931-.272,1.009.155,1.2.272.582.078,1.009,1.164,1.94,1.164-1.28,2.444-1.358.659-.5,1.358-1.784,1.358-.233.7a11.389,11.389,0,0,0,8.612-11.017A11.574,11.574,0,0,0,36.651,8.493Z" transform="translate(-15.975 -3.489)" fill="#ffad5b"/>
      <path id="Tracé_9" data-name="Tracé 9" d="M12.568,25.693l-.776-1.513.737-1.59-.737-.233-.853-.853-1.862-.427L8.418,19.8v.776H8.146L6.478,18.361V16.577l-1.164-1.94-1.862.349H2.172l-.582-.427.776-.659-.776.155A11.06,11.06,0,0,0,0,19.758a11.241,11.241,0,0,0,11.288,11.25c.5,0,.931-.078,1.435-.078l-.155-1.358s.5-2.017.5-2.095C13.073,27.438,12.568,25.693,12.568,25.693Z" transform="translate(0 -8.508)" fill="#5badff"/>
      <path id="Tracé_10" data-name="Tracé 10" d="M8.252,3.646l2.017-.272.931-.5,1.009.272,1.668-.078.582-.853.853.155,2.017-.233.582-.659.776-.5,1.086.194.427-.078A10.552,10.552,0,0,0,15.389,0,11.162,11.162,0,0,0,6.7,4.151h0Zm7.642-2.483L17.057.5l.737.427-1.086.776L15.7,1.784l-.427-.272ZM12.441,1.2l.5.233L13.6,1.2l.349.659-1.513.427L11.7,1.862S12.441,1.358,12.441,1.2Z" transform="translate(-4.101 0)" fill="#ffad5b"/>
    </g>
  </g>
</svg>
