<svg xmlns="http://www.w3.org/2000/svg" width="22.742" height="20.544" viewBox="0 0 22.742 20.544">
  <path id="PANIER" d="M-16.325-.609a1.824,1.824,0,0,0-1.749-1.868A1.824,1.824,0,0,0-19.823-.609a1.824,1.824,0,0,0,1.749,1.868A1.824,1.824,0,0,0-16.325-.609Zm12.246,0A1.824,1.824,0,0,0-5.828-2.477,1.824,1.824,0,0,0-7.578-.609,1.824,1.824,0,0,0-5.828,1.258,1.824,1.824,0,0,0-4.079-.609ZM-2.33-16.484a.912.912,0,0,0-.875-.934H-19.618c-.137-.7-.164-1.868-1.08-1.868h-3.5a.912.912,0,0,0-.875.934.912.912,0,0,0,.875.934h2.788L-18.99-5.41a7.779,7.779,0,0,0-.834,2,.912.912,0,0,0,.875.934h14a.912.912,0,0,0,.875-.934.912.912,0,0,0-.875-.934H-17.527a2.3,2.3,0,0,0,.328-.934A5.143,5.143,0,0,0-17.377-6.3L-3.109-8.08a.937.937,0,0,0,.779-.934Z" transform="translate(25.071 19.286)" fill="#5badff"/>
</svg>
