<svg id="Groupe_923" data-name="Groupe 923" xmlns="http://www.w3.org/2000/svg" width="100.57" height="15.261" viewBox="0 0 100.57 15.261">
  <g id="noun_Star_1174018" transform="translate(64.129)">
    <g id="Groupe_920" data-name="Groupe 920" transform="translate(0)">
      <g id="Groupe_919" data-name="Groupe 919">
        <path id="Tracé_74" data-name="Tracé 74" d="M27.841,40.871l.947-5.521-4.012-3.91,5.544-.806L32.8,25.611l2.479,5.024,5.544.806-4.012,3.91.947,5.521L32.8,38.265ZM32.8,37.187l3.691,1.941-.7-4.11,2.986-2.911-4.127-.6L32.8,27.767l-1.846,3.74-4.127.6,2.986,2.911-.7,4.11Z" transform="translate(-24.777 -25.611)"/>
      </g>
    </g>
  </g>
  <g id="noun_Star_1174018-2" data-name="noun_Star_1174018" transform="translate(84.524)">
    <g id="Groupe_920-2" data-name="Groupe 920" transform="translate(0)">
      <g id="Groupe_919-2" data-name="Groupe 919">
        <path id="Tracé_74-2" data-name="Tracé 74" d="M27.841,40.871l.947-5.521-4.012-3.91,5.544-.806L32.8,25.611l2.479,5.024,5.544.806-4.012,3.91.947,5.521L32.8,38.265ZM32.8,37.187l3.691,1.941-.7-4.11,2.986-2.911-4.127-.6L32.8,27.767l-1.846,3.74-4.127.6,2.986,2.911-.7,4.11Z" transform="translate(-24.777 -25.611)"/>
      </g>
    </g>
  </g>
  <g id="noun_Star_1174020" transform="translate(43.928 0.095)">
    <g id="Groupe_922" data-name="Groupe 922" transform="translate(0 0)">
      <g id="Groupe_921" data-name="Groupe 921">
        <path id="Tracé_75" data-name="Tracé 75" d="M35.973,41.575,40.9,44.166l-.941-5.487,3.987-3.886-5.509-.8L35.973,29l-2.464,4.992-5.509.8,3.987,3.886-.941,5.487Z" transform="translate(-28 -29)"/>
      </g>
    </g>
  </g>
  <g id="noun_Star_1174020-2" data-name="noun_Star_1174020" transform="translate(21.964 0.095)">
    <g id="Groupe_922-2" data-name="Groupe 922" transform="translate(0 0)">
      <g id="Groupe_921-2" data-name="Groupe 921">
        <path id="Tracé_75-2" data-name="Tracé 75" d="M35.973,41.575,40.9,44.166l-.941-5.487,3.987-3.886-5.509-.8L35.973,29l-2.464,4.992-5.509.8,3.987,3.886-.941,5.487Z" transform="translate(-28 -29)"/>
      </g>
    </g>
  </g>
  <g id="noun_Star_1174020-3" data-name="noun_Star_1174020" transform="translate(0 0.095)">
    <g id="Groupe_922-3" data-name="Groupe 922" transform="translate(0 0)">
      <g id="Groupe_921-3" data-name="Groupe 921">
        <path id="Tracé_75-3" data-name="Tracé 75" d="M35.973,41.575,40.9,44.166l-.941-5.487,3.987-3.886-5.509-.8L35.973,29l-2.464,4.992-5.509.8,3.987,3.886-.941,5.487Z" transform="translate(-28 -29)"/>
      </g>
    </g>
  </g>
</svg>
